<svg width="24" height="24" viewBox="0 0 24 24" fill="none" xmlns="http://www.w3.org/2000/svg">
<g filter="url(#filter0_d_282_30522)">
<path fill-rule="evenodd" clip-rule="evenodd" d="M7.42718 5.14286C7.27562 5.14286 7.13028 5.20306 7.02312 5.31022C6.91595 5.41739 6.85575 5.56273 6.85575 5.71429V8C6.85575 8.15155 6.91595 8.2969 7.02312 8.40406C7.13028 8.51122 7.27562 8.57143 7.42718 8.57143C7.57873 8.57143 7.72407 8.51122 7.83124 8.40406C7.9384 8.2969 7.99861 8.15155 7.99861 8V5.71429C7.99861 5.56273 7.9384 5.41739 7.83124 5.31022C7.72407 5.20306 7.57873 5.14286 7.42718 5.14286ZM7.42718 4C7.88183 4 8.31787 4.18061 8.63936 4.5021C8.96085 4.82359 9.14146 5.25963 9.14146 5.71429V8C9.14146 8.45466 8.96085 8.89069 8.63936 9.21218C8.31787 9.53367 7.88183 9.71428 7.42718 9.71428C6.97252 9.71428 6.53648 9.53367 6.21499 9.21218C5.8935 8.89069 5.71289 8.45466 5.71289 8V5.71429C5.71289 5.25963 5.8935 4.82359 6.21499 4.5021C6.53648 4.18061 6.97252 4 7.42718 4Z" fill="#303030"/>
<path fill-rule="evenodd" clip-rule="evenodd" d="M8 6.85658C8 6.54099 8.25584 6.28516 8.57143 6.28516H21.1429C21.4585 6.28516 21.7143 6.54099 21.7143 6.85658C21.7143 7.17218 21.4585 7.42801 21.1429 7.42801H8.57143C8.25584 7.42801 8 7.17218 8 6.85658Z" fill="#303030"/>
<path fill-rule="evenodd" clip-rule="evenodd" d="M2.28516 6.85658C2.28516 6.54099 2.54099 6.28516 2.85658 6.28516H6.28516C6.60075 6.28516 6.85659 6.54099 6.85659 6.85658C6.85659 7.17218 6.60075 7.42801 6.28516 7.42801H2.85658C2.54099 7.42801 2.28516 7.17218 2.28516 6.85658Z" fill="#303030"/>
<path fill-rule="evenodd" clip-rule="evenodd" d="M7.42718 16.5706C7.27562 16.5706 7.13028 16.6308 7.02312 16.738C6.91595 16.8451 6.85575 16.9905 6.85575 17.142V19.4277C6.85575 19.5793 6.91595 19.7246 7.02312 19.8318C7.13028 19.939 7.27562 19.9992 7.42718 19.9992C7.57873 19.9992 7.72407 19.939 7.83124 19.8318C7.9384 19.7246 7.99861 19.5793 7.99861 19.4277V17.142C7.99861 16.9905 7.9384 16.8451 7.83124 16.738C7.72407 16.6308 7.57873 16.5706 7.42718 16.5706ZM6.21499 15.9298C6.53648 15.6083 6.97252 15.4277 7.42718 15.4277C7.88183 15.4277 8.31787 15.6083 8.63936 15.9298C8.96085 16.2513 9.14146 16.6874 9.14146 17.142V19.4277C9.14146 19.8824 8.96085 20.3184 8.63936 20.6399C8.31787 20.9614 7.88183 21.142 7.42718 21.142C6.97252 21.142 6.53649 20.9614 6.21499 20.6399C5.8935 20.3184 5.71289 19.8824 5.71289 19.4277V17.142C5.71289 16.6874 5.8935 16.2513 6.21499 15.9298Z" fill="#303030"/>
<path fill-rule="evenodd" clip-rule="evenodd" d="M8 18.2863C8 17.9707 8.25584 17.7148 8.57143 17.7148H21.1429C21.4585 17.7148 21.7143 17.9707 21.7143 18.2863C21.7143 18.6019 21.4585 18.8577 21.1429 18.8577H8.57143C8.25584 18.8577 8 18.6019 8 18.2863Z" fill="#303030"/>
<path fill-rule="evenodd" clip-rule="evenodd" d="M2.28516 18.2863C2.28516 17.9707 2.54099 17.7148 2.85658 17.7148H6.28516C6.60075 17.7148 6.85659 17.9707 6.85659 18.2863C6.85659 18.6019 6.60075 18.8577 6.28516 18.8577H2.85658C2.54099 18.8577 2.28516 18.6019 2.28516 18.2863Z" fill="#303030"/>
<path fill-rule="evenodd" clip-rule="evenodd" d="M16.5717 10.8577C16.4202 10.8577 16.2748 10.9179 16.1676 11.0251C16.0605 11.1322 16.0003 11.2776 16.0003 11.4291V13.7148C16.0003 13.8664 16.0605 14.0117 16.1676 14.1189C16.2748 14.2261 16.4202 14.2863 16.5717 14.2863C16.7233 14.2863 16.8686 14.2261 16.9758 14.1189C17.0829 14.0117 17.1431 13.8664 17.1431 13.7148V11.4291C17.1431 11.2776 17.0829 11.1322 16.9758 11.0251C16.8686 10.9179 16.7233 10.8577 16.5717 10.8577ZM16.5717 9.71484C17.0264 9.71484 17.4624 9.89546 17.7839 10.2169C18.1054 10.5384 18.286 10.9745 18.286 11.4291V13.7148C18.286 14.1695 18.1054 14.6055 17.7839 14.927C17.4624 15.2485 17.0264 15.4291 16.5717 15.4291C16.1171 15.4291 15.681 15.2485 15.3595 14.927C15.038 14.6055 14.8574 14.1695 14.8574 13.7148V11.4291C14.8574 10.9745 15.038 10.5384 15.3595 10.2169C15.681 9.89546 16.1171 9.71484 16.5717 9.71484Z" fill="#303030"/>
<path fill-rule="evenodd" clip-rule="evenodd" d="M2.28516 12.5714C2.28516 12.2558 2.54099 12 2.85658 12H15.428C15.7436 12 15.9994 12.2558 15.9994 12.5714C15.9994 12.887 15.7436 13.1429 15.428 13.1429H2.85658C2.54099 13.1429 2.28516 12.887 2.28516 12.5714Z" fill="#303030"/>
<path fill-rule="evenodd" clip-rule="evenodd" d="M17.1426 12.5714C17.1426 12.2558 17.3984 12 17.714 12H21.1426C21.4582 12 21.714 12.2558 21.714 12.5714C21.714 12.887 21.4582 13.1429 21.1426 13.1429H17.714C17.3984 13.1429 17.1426 12.887 17.1426 12.5714Z" fill="#303030"/>
</g>
<defs>
<filter id="filter0_d_282_30522" x="-2" y="-2" width="28" height="28" filterUnits="userSpaceOnUse" color-interpolation-filters="sRGB">
<feFlood flood-opacity="0" result="BackgroundImageFix"/>
<feColorMatrix in="SourceAlpha" type="matrix" values="0 0 0 0 0 0 0 0 0 0 0 0 0 0 0 0 0 0 127 0" result="hardAlpha"/>
<feMorphology radius="2" operator="dilate" in="SourceAlpha" result="effect1_dropShadow_282_30522"/>
<feOffset/>
<feComposite in2="hardAlpha" operator="out"/>
<feColorMatrix type="matrix" values="0 0 0 0 1 0 0 0 0 1 0 0 0 0 1 0 0 0 0.01 0"/>
<feBlend mode="normal" in2="BackgroundImageFix" result="effect1_dropShadow_282_30522"/>
<feBlend mode="normal" in="SourceGraphic" in2="effect1_dropShadow_282_30522" result="shape"/>
</filter>
</defs>
</svg>
