<svg width="66" height="66" viewBox="0 0 66 66" fill="none" xmlns="http://www.w3.org/2000/svg">
<rect x="0.125977" width="65.387" height="65.387" rx="16" fill="#F9668D"/>
<path d="M31.6752 28.157H33.9654V27.0227C33.9654 26.7218 34.086 26.4333 34.3008 26.2205C34.5155 26.0078 34.8068 25.8883 35.1105 25.8883H38.5459C38.8496 25.8883 39.1408 26.0078 39.3556 26.2205C39.5703 26.4333 39.691 26.7218 39.691 27.0227V28.157H44.2714V23.6195C44.2714 22.4161 43.7888 21.262 42.9298 20.411C42.0708 19.5601 40.9058 19.082 39.691 19.082H25.9496C24.7348 19.082 23.5697 19.5601 22.7107 20.411C21.8517 21.262 21.3691 22.4161 21.3691 23.6195V28.157H25.9496V27.0227C25.9496 26.7218 26.0702 26.4333 26.285 26.2205C26.4997 26.0078 26.791 25.8883 27.0947 25.8883H30.5301C30.8338 25.8883 31.125 26.0078 31.3398 26.2205C31.5545 26.4333 31.6752 26.7218 31.6752 27.0227V28.157Z" fill="white"/>
<path d="M22.5144 30.4258C20.9959 30.4258 19.5397 31.0234 18.466 32.087C17.3923 33.1507 16.7891 34.5934 16.7891 36.0977V45.1727C16.7891 45.4735 16.9097 45.7621 17.1244 45.9748C17.3392 46.1875 17.6304 46.3071 17.9341 46.3071C18.2378 46.3071 18.5291 46.1875 18.7438 45.9748C18.9586 45.7621 19.0792 45.4735 19.0792 45.1727V39.5008H46.5608V45.1727C46.5608 45.4735 46.6814 45.7621 46.8961 45.9748C47.1109 46.1875 47.4021 46.3071 47.7058 46.3071C48.0095 46.3071 48.3008 46.1875 48.5155 45.9748C48.7303 45.7621 48.8509 45.4735 48.8509 45.1727V36.0977C48.8509 34.5934 48.2477 33.1507 47.174 32.087C46.1003 31.0234 44.644 30.4258 43.1256 30.4258H22.5144Z" fill="white"/>
</svg>
