<svg width="32" height="32" viewBox="0 0 32 32" fill="none" xmlns="http://www.w3.org/2000/svg">
<path d="M21.4613 1.04221C20.8025 0.38988 19.9091 0.0234375 18.9776 0.0234375C18.046 0.0234375 17.1526 0.38988 16.4938 1.04221L1.06626 16.3272C0.739982 16.6505 0.481161 17.0342 0.304578 17.4565C0.127995 17.8789 0.0371094 18.3315 0.0371094 18.7886C0.0371094 19.2458 0.127995 19.6984 0.304578 20.1207C0.481161 20.5431 0.739982 20.9268 1.06626 21.25L2.89651 23.0616C3.69295 23.8522 4.81265 23.7114 5.48884 23.3123C5.86185 23.0928 6.298 23.0028 6.72843 23.0563C7.15886 23.1098 7.55904 23.3038 7.86579 23.6076C8.17253 23.9115 8.36836 24.308 8.42235 24.7344C8.47634 25.1608 8.38542 25.5929 8.16394 25.9624C7.7626 26.6323 7.61893 27.7415 8.41693 28.5305L10.2487 30.3437C10.575 30.6669 10.9624 30.9233 11.3887 31.0983C11.815 31.2732 12.2719 31.3632 12.7333 31.3632C13.1947 31.3632 13.6517 31.2732 14.078 31.0983C14.5043 30.9233 14.8916 30.6669 15.2179 30.3437L30.6438 15.0617C30.9701 14.7385 31.2289 14.3548 31.4055 13.9325C31.5821 13.5101 31.673 13.0575 31.673 12.6004C31.673 12.1432 31.5821 11.6906 31.4055 11.2683C31.2289 10.8459 30.9701 10.4622 30.6438 10.139L28.8151 8.32581C28.0187 7.53681 26.8974 7.67604 26.2212 8.07519C25.8482 8.2946 25.4121 8.38467 24.9817 8.33119C24.5512 8.2777 24.151 8.0837 23.8443 7.77981C23.5376 7.47593 23.3417 7.07949 23.2877 6.65307C23.2337 6.22666 23.3247 5.79458 23.5461 5.42506C23.949 4.75518 24.0912 3.64593 23.2932 2.85692L21.4629 1.04221H21.4613Z" fill="white"/>
</svg>
