<svg width="36" height="46" viewBox="0 0 36 46" fill="none" xmlns="http://www.w3.org/2000/svg">
<path fill-rule="evenodd" clip-rule="evenodd" d="M35.0003 25.976C35.1779 24.9926 35.2671 23.9959 35.2668 22.9972C35.2668 22.3823 35.2328 21.8035 35.1673 21.2513C35.1533 21.1316 33.1708 25.1063 29.999 27.624C32.2055 25.6907 35.0837 20.6466 35.0431 20.4279C35.0082 20.2381 34.9688 20.0491 34.9249 19.8611C34.5457 18.2341 33.8618 16.7879 32.9298 15.2157C32.641 18.5523 31.6317 22.1067 28.9836 25.1804C31.7319 21.955 32.6881 14.6089 32.0332 13.5972C29.3972 9.55525 23.8466 6.01758 17.9042 6.01758L17.8624 6.12425V6.02505C11.9198 6.02505 6.36962 9.56251 3.73362 13.6043C3.07854 14.6159 4.03474 21.9621 6.783 25.1874C4.13511 22.1138 3.12565 18.5593 2.83706 15.2227C1.90442 16.7951 1.22091 18.241 0.841696 19.8682C0.79781 20.0562 0.7584 20.2451 0.723498 20.4349C0.682967 20.6537 3.56131 25.6977 5.76781 27.631C2.59578 25.1131 0.613364 21.1384 0.599147 21.2584C0.531661 21.838 0.498573 22.4209 0.500047 23.0043C0.500047 24.0205 0.591295 25.0158 0.766364 25.9831C0.928276 26.8777 4.61491 29.3408 4.7104 29.4182C2.03259 28.3951 0.927003 26.786 1.02759 27.1747C2.92852 34.5358 9.74474 39.9837 17.8624 39.9837V39.976L17.9042 39.9765C26.0219 39.9765 32.8381 34.5289 34.7388 27.1674C34.8396 26.7787 33.7342 28.3879 31.0562 29.411C31.1515 29.3338 34.8381 26.8709 35.0003 25.976ZM23.5168 26.6297C23.3415 26.7042 23.1641 26.7684 22.9825 26.8165C21.3179 27.26 19.0036 27.0971 17.9216 25.7148C16.8271 24.3165 17.1301 22.0482 17.981 20.6165C18.8402 19.1711 20.13 18.097 21.2761 16.8804C21.8252 16.3001 22.3847 15.7291 22.9543 15.168C23.3239 14.8021 24.3327 14.0181 24.3119 13.4951C24.3024 13.2475 23.8423 12.8113 23.7144 12.577C23.5278 12.2356 23.4113 11.8936 23.2117 11.5684C22.7699 10.8504 22.1767 10.5215 21.378 10.3675C20.3796 10.1751 19.6634 10.2608 18.8364 10.8025C18.2142 11.21 17.5666 11.97 16.8067 12.0501C15.606 12.1767 10.3775 13.0244 10.1299 13.1776C10.7748 13.1309 18.6586 13.2801 19.5518 13.4951C20.602 13.7479 20.5544 14.5755 19.8414 15.2265C17.5991 17.2733 14.2959 18.4915 12.8877 21.3078C12.229 22.6245 11.8065 23.516 11.8048 25.0561C11.8042 25.6907 11.8549 26.9929 12.6566 28.6099C12.6195 28.5861 11.3895 27.1674 11.3401 25.9673C8.37305 24.027 6.86406 21.1254 6.86406 17.3492C6.86406 11.3636 11.7798 6.51107 17.8435 6.51107C23.9073 6.51107 28.8228 11.3634 28.8228 17.3492C28.8232 21.2854 27.1026 24.9264 23.5168 26.6297Z" fill="#B4282E"/>
<path fill-rule="evenodd" clip-rule="evenodd" d="M18.3178 29.918L16.8854 33.7669C16.0597 35.9852 12.5549 35.5191 12.4316 35.5191C12.1437 35.5191 11.9234 35.4879 11.7031 35.2843L12.2277 34.7132C12.3527 34.8072 12.5483 34.862 12.7482 34.862C12.9116 34.862 14.7124 35.2443 15.2493 33.7669L16.6817 29.918H18.3178ZM28.4327 34.7446L28.191 35.3939H23.263L25.301 29.918H26.9547L25.158 34.7446H28.4327ZM21.086 29.9317L16.7199 35.4072H17.5678L18.673 33.9209H20.6507L20.3212 35.4072H22.0632L23.4011 29.9317H21.086ZM19.2485 33.1444L21.501 30.4486L20.8805 33.1444H19.2485Z" fill="white"/>
</svg>
