<svg width="174" height="34" viewBox="0 0 174 34" fill="none" xmlns="http://www.w3.org/2000/svg">
<g clip-path="url(#clip0_283_26102)">
<path d="M129.851 9.0473C131.214 9.0473 132.452 9.2207 133.564 9.56748C134.676 9.91427 135.615 10.3627 136.38 10.9128C136.858 11.2476 137.235 11.6183 137.51 12.0249C137.785 12.4315 137.923 12.9576 137.923 13.6034V26.1594L137.917 26.5008C137.877 27.6245 137.64 28.6049 137.205 29.4419C136.727 30.3627 136.075 31.128 135.25 31.7379C134.425 32.3478 133.456 32.7962 132.344 33.0832C131.232 33.3702 130.042 33.5137 128.775 33.5137C126.598 33.5137 124.888 33.2207 123.645 32.6347C122.401 32.0488 121.779 31.0981 121.779 29.7827C121.779 29.2327 121.893 28.7484 122.12 28.3298C122.347 27.9113 122.604 27.5944 122.891 27.3791C123.585 27.7618 124.368 28.0847 125.241 28.3478C126.114 28.6108 127.017 28.7424 127.95 28.7424C129.241 28.7424 130.269 28.5271 131.035 28.0966C131.8 27.6661 132.183 26.9726 132.183 26.0159V25.4419L131.91 25.554C130.983 25.9098 129.878 26.0877 128.595 26.0877C127.519 26.0877 126.497 25.9262 125.528 25.6034C124.559 25.2805 123.71 24.7782 122.981 24.0966C122.251 23.415 121.665 22.5361 121.223 21.4599C120.781 20.3836 120.559 19.1041 120.559 17.6213C120.559 16.1624 120.793 14.8948 121.259 13.8186C121.725 12.7424 122.371 11.8515 123.196 11.146C124.021 10.4404 125.002 9.91427 126.138 9.56748C127.274 9.2207 128.512 9.0473 129.851 9.0473ZM33.2869 9.60422C35.4197 9.60422 37.165 10.0828 38.5227 11.04C39.8804 11.9971 40.6841 13.6878 40.9338 16.1119H36.3769L36.3333 15.8437C36.2301 15.315 36.0313 14.8322 35.737 14.3952C35.2377 13.7086 34.4626 13.3652 33.4118 13.3652C31.9136 13.3652 30.8888 14.1091 30.3374 15.5969C30.0461 16.3876 29.9004 17.4384 29.9004 18.7493C29.9004 19.9977 30.0461 21.0017 30.3374 21.7612C30.868 23.1761 31.8668 23.8836 33.3337 23.8836C34.3741 23.8836 35.1128 23.6027 35.5498 23.0409C35.9867 22.4791 36.252 21.7508 36.3457 20.8561H40.887L40.8561 21.1669C40.7054 22.405 40.2267 23.5811 39.42 24.6951C38.0259 26.6407 35.9607 27.6134 33.2245 27.6134C30.4883 27.6134 28.4751 26.8019 27.185 25.1789C25.8949 23.5559 25.2499 21.4491 25.2499 18.8585C25.2499 15.935 25.9626 13.6618 27.3879 12.0387C28.8132 10.4157 30.7796 9.60422 33.2869 9.60422ZM74.6185 9.55741C76.0334 9.55741 77.3079 9.82271 78.4419 10.3533C79.5759 10.8839 80.5123 11.7214 81.251 12.8659C81.9168 13.875 82.3486 15.0455 82.5462 16.3772C82.6607 17.1575 82.7075 18.2811 82.6867 19.7481H71.0447L71.0606 20.0439C71.1718 21.5933 71.7023 22.6911 72.6521 23.3374C73.2659 23.764 74.0046 23.9772 74.8681 23.9772C75.7837 23.9772 76.5276 23.7172 77.0998 23.197C77.4119 22.916 77.6876 22.5259 77.9269 22.0265H82.4682L82.4345 22.2597C82.2705 23.1934 81.7563 24.1405 80.892 25.1009C79.4355 26.7551 77.3963 27.5822 74.7745 27.5822C72.6105 27.5822 70.7014 26.8851 69.0471 25.491C67.3929 24.0969 66.5658 21.8288 66.5658 18.6869C66.5658 15.7425 67.3123 13.4849 68.8053 11.9139C70.2982 10.3429 72.236 9.55741 74.6185 9.55741ZM105.848 3.30739C106.374 3.30739 106.846 3.34327 107.265 3.41502C107.683 3.48677 108.036 3.63026 108.323 3.84551C108.61 4.06076 108.831 4.35373 108.987 4.72443C109.142 5.09514 109.22 5.57944 109.22 6.17735V26.9845L109.099 27.0061C108.843 27.0515 108.495 27.1101 108.054 27.1818C107.54 27.2655 107.019 27.3074 106.493 27.3074C105.967 27.3074 105.495 27.2715 105.076 27.1998C104.658 27.128 104.305 26.9845 104.018 26.7693C103.731 26.554 103.51 26.2611 103.354 25.8904C103.199 25.5197 103.121 25.0353 103.121 24.4374V3.63026L103.242 3.60867C103.498 3.56327 103.846 3.5047 104.287 3.43295C104.801 3.34925 105.321 3.30739 105.848 3.30739ZM115.015 9.51367C115.541 9.51367 116.014 9.54955 116.432 9.62129C116.851 9.69304 117.203 9.83654 117.49 10.0518C117.777 10.267 117.999 10.56 118.154 10.9307C118.31 11.3014 118.387 11.7857 118.387 12.3836V26.9845L118.267 27.0061C118.011 27.0515 117.662 27.1101 117.221 27.1818C116.707 27.2655 116.187 27.3074 115.661 27.3074C115.135 27.3074 114.662 27.2715 114.244 27.1998C113.825 27.128 113.473 26.9845 113.186 26.7693C112.899 26.554 112.677 26.2611 112.522 25.8904C112.366 25.5197 112.289 25.0353 112.289 24.4374V9.83654L112.409 9.81494C112.665 9.76955 113.014 9.71098 113.455 9.63923C113.969 9.55553 114.489 9.51367 115.015 9.51367ZM143.574 3.30739C144.101 3.30739 144.573 3.34327 144.991 3.41502C145.41 3.48677 145.763 3.63026 146.05 3.84551C146.337 4.06076 146.558 4.35373 146.713 4.72443C146.869 5.09514 146.947 5.57944 146.947 6.17735V9.69304L147.071 9.64736C147.378 9.5388 147.809 9.41651 148.364 9.28049C148.997 9.12503 149.697 9.0473 150.462 9.0473C152.83 9.0473 154.678 9.63923 156.005 10.8231C157.332 12.0069 157.996 13.7708 157.996 16.1146V26.9845L157.885 27.0153C157.646 27.0768 157.307 27.1383 156.866 27.1998C156.352 27.2715 155.82 27.3074 155.27 27.3074C154.743 27.3074 154.271 27.2715 153.852 27.1998C153.434 27.128 153.081 26.9845 152.794 26.7693C152.507 26.554 152.286 26.2611 152.131 25.8904C151.975 25.5197 151.897 25.0353 151.897 24.4374V16.4733L151.893 16.2522C151.858 15.3887 151.614 14.7748 151.162 14.4105C150.672 14.0159 150.068 13.8186 149.35 13.8186C148.872 13.8186 148.417 13.8784 147.987 13.998C147.557 14.1176 147.21 14.2611 146.947 14.4285V26.9845L146.836 27.0153C146.597 27.0768 146.257 27.1383 145.817 27.1998C145.302 27.2715 144.77 27.3074 144.22 27.3074C143.694 27.3074 143.222 27.2715 142.803 27.1998C142.385 27.128 142.032 26.9845 141.745 26.7693C141.458 26.554 141.237 26.2611 141.081 25.8904C140.926 25.5197 140.848 25.0353 140.848 24.4374V3.63026L140.968 3.60867C141.225 3.56327 141.573 3.5047 142.014 3.43295C142.528 3.34925 143.048 3.30739 143.574 3.30739ZM100.626 5.28049L100.708 5.4195C100.843 5.66365 100.965 5.97007 101.075 6.33878C101.206 6.78124 101.272 7.24162 101.272 7.71995C101.272 8.65269 101.075 9.31636 100.68 9.71098C100.285 10.1056 99.7533 10.3029 99.0836 10.3029H91.55V14.3567H99.4065L99.4997 14.4952C99.6508 14.7377 99.7812 15.0383 99.8908 15.3971C100.022 15.8276 100.088 16.282 100.088 16.7603C100.088 17.6691 99.8908 18.3208 99.4962 18.7155C99.1016 19.1101 98.5694 19.3074 97.8998 19.3074H91.6217V26.8769L91.4998 26.9076C91.2377 26.9691 90.8658 27.0306 90.3841 27.0921C89.822 27.1639 89.266 27.1998 88.7159 27.1998C88.1658 27.1998 87.6815 27.1579 87.263 27.0742C86.8445 26.9905 86.4917 26.841 86.2047 26.6258C85.9177 26.4105 85.7025 26.1116 85.559 25.7289C85.4155 25.3463 85.3437 24.844 85.3437 24.2222V8.61681L85.3499 8.36419C85.3956 7.45438 85.6925 6.72543 86.2406 6.17735C86.8385 5.57944 87.6516 5.28049 88.68 5.28049H100.626ZM16.3082 4.04853V8.09045H4.7754V13.3808H14.8724V17.376H4.7754V27.0204H0V4.04853H16.3082ZM22.8234 10.01V27.0204H18.3133V10.01H22.8234ZM47.4022 4.09534V16.4864L52.9423 10.088H58.4512L52.5054 16.5957L58.6853 27.0204H53.3169L49.2437 19.7481L47.4022 21.6676V27.0204H43.0326V4.09534H47.4022ZM64.4827 4.01732V27.0204H60.035V4.01732H64.4827ZM158.328 5.13296C159.074 4.90877 160.346 4.8589 161.836 5.51761C163.339 6.18259 164.277 7.32318 164.649 8.93939L172.721 9.62541C172.821 9.63121 172.92 9.65146 173.019 9.68616C173.167 9.73822 173.247 9.81146 173.314 9.86879C173.478 10.0094 173.531 10.1178 173.609 10.3118C173.748 10.657 173.706 11.0632 173.525 11.3417C173.233 11.7907 172.777 12.0813 172.156 12.2133L165.639 13.5984L166.79 19.01C166.922 19.6312 167.213 20.0313 167.663 20.2103C168.113 20.3894 168.696 20.4027 169.413 20.2503C169.772 20.1742 170.135 20.0656 170.505 19.9246C170.875 19.7836 171.193 19.6349 171.459 19.4783C171.73 19.6955 171.977 19.9488 172.201 20.2383C172.425 20.5278 172.585 20.8996 172.682 21.3535C173.038 23.0317 170.397 24.6171 168.666 24.9283C167.062 25.2164 164.602 25.4558 163.195 21.771C161.789 18.0863 159.58 11.9099 157.894 6.76268C157.748 6.31848 157.658 5.88221 157.814 5.52221C157.899 5.32762 157.96 5.24363 158.328 5.13296ZM130.138 13.8186C128.966 13.8186 128.087 14.1475 127.501 14.8052C126.915 15.4628 126.622 16.4016 126.622 17.6213C126.622 19.0084 126.915 20.0069 127.501 20.6168C128.087 21.2267 128.834 21.5316 129.743 21.5316C130.724 21.5316 131.501 21.3044 132.075 20.85V14.2491L131.965 14.1917C131.806 14.1152 131.598 14.0386 131.34 13.9621C131.017 13.8664 130.616 13.8186 130.138 13.8186ZM74.6185 13.2248C73.5885 13.2248 72.79 13.5473 72.2229 14.1924C71.6559 14.8374 71.2996 15.7113 71.1539 16.8141H78.0674C77.9945 15.6385 77.6382 14.7464 76.9984 14.1377C76.3585 13.5291 75.5652 13.2248 74.6185 13.2248ZM22.8234 3.87686V7.98121H18.3133V3.87686H22.8234ZM115.338 1.51367C116.342 1.51367 117.15 1.82458 117.76 2.44641C118.369 3.06823 118.674 3.83355 118.674 4.74237C118.674 5.65119 118.369 6.41651 117.76 7.03834C117.15 7.66016 116.342 7.97107 115.338 7.97107C114.334 7.97107 113.526 7.66016 112.916 7.03834C112.307 6.41651 112.002 5.65119 112.002 4.74237C112.002 3.83355 112.307 3.06823 112.916 2.44641C113.526 1.82458 114.334 1.51367 115.338 1.51367Z" fill="white"/>
</g>
<defs>
<clipPath id="clip0_283_26102">
<rect width="174" height="33" fill="white" transform="translate(0 0.988281)"/>
</clipPath>
</defs>
</svg>
