<svg width="130" height="30" viewBox="0 0 130 30" fill="none" xmlns="http://www.w3.org/2000/svg">
<path d="M14.9996 0.599609C7.04661 0.599609 0.599609 7.04661 0.599609 14.9996C0.599609 22.9526 7.04661 29.3996 14.9996 29.3996C22.9526 29.3996 29.3996 22.9526 29.3996 14.9996C29.3996 7.04661 22.9526 0.599609 14.9996 0.599609ZM18.4106 10.5506H16.2461C15.9896 10.5506 15.7046 10.8881 15.7046 11.3366V12.8996H18.4121L18.0026 15.1286H15.7046V21.8201H13.1501V15.1286H10.8326V12.8996H13.1501V11.5886C13.1501 9.70761 14.4551 8.17911 16.2461 8.17911H18.4106V10.5506Z" fill="white"/>
<path d="M115 0.599609C107.047 0.599609 100.6 7.04661 100.6 14.9996C100.6 22.9526 107.047 29.3996 115 29.3996C122.953 29.3996 129.4 22.9526 129.4 14.9996C129.4 7.04661 122.953 0.599609 115 0.599609ZM120.857 12.3956C120.863 12.5186 120.865 12.6416 120.865 12.7616C120.865 16.5116 118.013 20.8331 112.796 20.8331C111.255 20.8357 109.745 20.3929 108.449 19.5581C108.67 19.5851 108.896 19.5956 109.126 19.5956C110.455 19.5956 111.677 19.1441 112.648 18.3821C112.056 18.3705 111.483 18.1747 111.008 17.8219C110.533 17.4691 110.18 16.977 109.999 16.4141C110.423 16.4949 110.861 16.4779 111.278 16.3646C110.636 16.2348 110.059 15.887 109.644 15.3801C109.229 14.8732 109.003 14.2385 109.003 13.5836V13.5491C109.385 13.7606 109.823 13.8896 110.288 13.9046C109.686 13.504 109.26 12.8886 109.097 12.1843C108.934 11.48 109.046 10.74 109.411 10.1156C110.123 10.9916 111.012 11.7082 112.018 12.2191C113.025 12.7299 114.128 13.0236 115.256 13.0811C115.113 12.4726 115.174 11.8337 115.432 11.2639C115.689 10.694 116.127 10.2251 116.678 9.93001C117.229 9.63492 117.863 9.53019 118.479 9.63212C119.096 9.73404 119.662 10.0369 120.089 10.4936C120.724 10.368 121.333 10.1352 121.889 9.80511C121.678 10.4623 121.235 11.0204 120.643 11.3756C121.205 11.3079 121.754 11.1567 122.272 10.9271C121.891 11.497 121.412 11.9943 120.857 12.3956Z" fill="white"/>
<path d="M69.4996 14.9996C69.4996 16.1931 69.0255 17.3377 68.1816 18.1816C67.3377 19.0255 66.1931 19.4996 64.9996 19.4996C63.8061 19.4996 62.6615 19.0255 61.8176 18.1816C60.9737 17.3377 60.4996 16.1931 60.4996 14.9996C60.4996 14.7431 60.5266 14.4926 60.5731 14.2496H58.9996V20.2451C58.9996 20.6621 59.3371 20.9996 59.7541 20.9996H70.2466C70.4465 20.9992 70.638 20.9195 70.7792 20.7781C70.9203 20.6366 70.9996 20.445 70.9996 20.2451V14.2496H69.4261C69.4726 14.4926 69.4996 14.7431 69.4996 14.9996ZM64.9996 17.9996C65.3937 17.9995 65.7839 17.9218 66.1479 17.7709C66.5119 17.62 66.8427 17.3989 67.1212 17.1202C67.3998 16.8415 67.6208 16.5106 67.7715 16.1465C67.9222 15.7824 67.9997 15.3922 67.9996 14.9981C67.9995 14.604 67.9218 14.2139 67.7709 13.8498C67.62 13.4858 67.3989 13.1551 67.1202 12.8765C66.8415 12.5979 66.5106 12.377 66.1465 12.2262C65.7824 12.0755 65.3922 11.998 64.9981 11.9981C64.2023 11.9983 63.4391 12.3146 62.8765 12.8775C62.3139 13.4404 61.9979 14.2038 61.9981 14.9996C61.9983 15.7955 62.3147 16.5586 62.8775 17.1212C63.4404 17.6839 64.2038 17.9998 64.9996 17.9996ZM68.5996 11.8496H70.3981C70.5176 11.8496 70.6322 11.8022 70.7168 11.7179C70.8015 11.6335 70.8492 11.5191 70.8496 11.3996V9.60111C70.8496 9.48136 70.802 9.36652 70.7174 9.28185C70.6327 9.19718 70.5179 9.14961 70.3981 9.14961H68.5996C68.4799 9.14961 68.365 9.19718 68.2804 9.28185C68.1957 9.36652 68.1481 9.48136 68.1481 9.60111V11.3996C68.1496 11.6471 68.3521 11.8496 68.5996 11.8496ZM64.9996 0.599609C61.1805 0.599609 57.5178 2.11675 54.8173 4.81727C52.1167 7.5178 50.5996 11.1805 50.5996 14.9996C50.5996 18.8187 52.1167 22.4814 54.8173 25.1819C57.5178 27.8825 61.1805 29.3996 64.9996 29.3996C66.8906 29.3996 68.7632 29.0271 70.5103 28.3035C72.2573 27.5798 73.8448 26.5191 75.182 25.1819C76.5191 23.8448 77.5798 22.2573 78.3035 20.5103C79.0271 18.7632 79.3996 16.8906 79.3996 14.9996C79.3996 13.1086 79.0271 11.2361 78.3035 9.48897C77.5798 7.74188 76.5191 6.15444 75.182 4.81727C73.8448 3.48011 72.2573 2.41941 70.5103 1.69574C68.7632 0.972076 66.8906 0.599609 64.9996 0.599609ZM72.4996 20.8331C72.4996 21.7496 71.7496 22.4996 70.8331 22.4996H59.1661C58.2496 22.4996 57.4996 21.7496 57.4996 20.8331V9.16611C57.4996 8.24961 58.2496 7.49961 59.1661 7.49961H70.8331C71.7496 7.49961 72.4996 8.24961 72.4996 9.16611V20.8331Z" fill="white"/>
</svg>
