<svg width="36" height="46" viewBox="0 0 36 46" fill="none" xmlns="http://www.w3.org/2000/svg">
<path fill-rule="evenodd" clip-rule="evenodd" d="M17.885 8.08396C9.27647 8.08396 2.23151 15.2873 2.23151 24.2575C2.23151 33.2269 9.2771 40.4296 17.885 40.4296C26.4921 40.4296 33.537 33.227 33.537 24.2575C33.537 15.2872 26.4913 8.08396 17.885 8.08396ZM0.677734 24.2575C0.677734 14.5242 8.34247 6.56445 17.885 6.56445C27.4254 6.56445 35.0908 14.5243 35.0908 24.2575C35.0908 33.9901 27.426 41.9491 17.885 41.9491C8.34327 41.9491 0.677734 33.9901 0.677734 24.2575Z" fill="#CF4037"/>
<path fill-rule="evenodd" clip-rule="evenodd" d="M22.8449 20.5448C22.0879 15.2974 17.6645 12.7063 14.9013 11.1542C12.337 9.71456 10.0412 9.06036 9.9858 9.22912C12.9023 11.5743 14.7749 15.228 14.7749 19.333C14.7749 26.0645 9.73583 31.5834 3.33398 32.0987L3.73877 32.7238C11.9344 31.4473 33.8669 27.3756 33.8669 27.3756L33.9251 26.8972L20.6186 26.4416C22.0872 24.8894 23.0927 22.2546 22.8449 20.5448Z" fill="#CF4037"/>
</svg>
