<svg width="17" height="19" viewBox="0 0 17 19" fill="none" xmlns="http://www.w3.org/2000/svg">
<path d="M16.1058 7.04105L11.1163 6.25682L8.88591 1.36659C8.82499 1.23269 8.72477 1.12431 8.60097 1.05842C8.29048 0.892652 7.91317 1.03079 7.75793 1.36659L5.5275 6.25682L0.538023 7.04105C0.400464 7.0623 0.274695 7.13243 0.178403 7.2387C0.0619923 7.3681 -0.00215557 7.54219 5.53105e-05 7.72271C0.00226619 7.90323 0.0706549 8.07542 0.190194 8.20144L3.80015 12.0078L2.94728 17.3826C2.92728 17.5076 2.94007 17.6362 2.98421 17.7538C3.02834 17.8713 3.10205 17.9732 3.19698 18.0477C3.29191 18.1223 3.40426 18.1666 3.52129 18.1756C3.63832 18.1847 3.75535 18.1581 3.8591 18.0988L8.32192 15.5612L12.7847 18.0988C12.9066 18.1689 13.0481 18.1923 13.1837 18.1668C13.5256 18.1031 13.7555 17.7524 13.6966 17.3826L12.8437 12.0078L16.4536 8.20144C16.5519 8.0973 16.6167 7.96129 16.6364 7.81252C16.6895 7.4406 16.4497 7.0963 16.1058 7.04105Z" fill="#FDBF00"/>
</svg>
