<svg width="28" height="32" viewBox="0 0 28 32" fill="none" xmlns="http://www.w3.org/2000/svg">
<path d="M0.46875 23.6673C0.46875 25.134 1.12487 26.4506 2.15112 27.3673V29.5006C2.15112 30.884 3.2783 32.0006 4.67466 32.0006C6.07103 32.0006 7.19821 30.884 7.19821 29.5006V28.6673H20.6571V29.5006C20.6571 30.8673 21.7843 32.0006 23.1807 32.0006C24.5602 32.0006 25.7042 30.884 25.7042 29.5006V27.3673C26.7305 26.4506 27.3866 25.134 27.3866 23.6673V7.00065C27.3866 1.16732 21.3637 0.333984 13.9277 0.333984C6.49162 0.333984 0.46875 1.16732 0.46875 7.00065V23.6673ZM6.35703 25.334C4.96067 25.334 3.83348 24.2173 3.83348 22.834C3.83348 21.4506 4.96067 20.334 6.35703 20.334C7.75339 20.334 8.88058 21.4506 8.88058 22.834C8.88058 24.2173 7.75339 25.334 6.35703 25.334ZM21.4983 25.334C20.102 25.334 18.9748 24.2173 18.9748 22.834C18.9748 21.4506 20.102 20.334 21.4983 20.334C22.8947 20.334 24.0219 21.4506 24.0219 22.834C24.0219 24.2173 22.8947 25.334 21.4983 25.334ZM24.0219 15.334H3.83348V7.00065H24.0219V15.334Z" fill="white"/>
</svg>
