<svg width="17" height="19" viewBox="0 0 17 19" fill="none" xmlns="http://www.w3.org/2000/svg">
<path d="M16.1058 7.04105L11.1163 6.25682L8.88589 1.36659C8.82497 1.23269 8.72475 1.12431 8.60095 1.05842C8.29046 0.892652 7.91315 1.03079 7.75791 1.36659L5.52748 6.25682L0.538022 7.04105C0.400463 7.0623 0.274694 7.13243 0.178403 7.2387C0.0619921 7.3681 -0.00215557 7.54219 5.53104e-05 7.72271C0.00226619 7.90323 0.0706548 8.07542 0.190194 8.20144L3.80014 12.0078L2.94727 17.3826C2.92727 17.5076 2.94006 17.6362 2.9842 17.7538C3.02833 17.8713 3.10205 17.9732 3.19698 18.0477C3.29191 18.1223 3.40426 18.1666 3.52128 18.1756C3.63831 18.1847 3.75534 18.1581 3.85909 18.0988L8.3219 15.5612L12.7847 18.0988C12.9065 18.1689 13.048 18.1923 13.1836 18.1668C13.5256 18.1031 13.7555 17.7524 13.6965 17.3826L12.8437 12.0078L16.4536 8.20144C16.5519 8.0973 16.6167 7.96129 16.6364 7.81252C16.6894 7.4406 16.4497 7.0963 16.1058 7.04105Z" fill="#FDBF00"/>
</svg>
