<svg width="17" height="19" viewBox="0 0 17 19" fill="none" xmlns="http://www.w3.org/2000/svg">
<path d="M16.1368 7.04105L11.1377 6.25682L8.903 1.36659C8.84197 1.23269 8.74155 1.12431 8.61751 1.05842C8.30642 0.892652 7.92839 1.03079 7.77285 1.36659L5.53813 6.25682L0.539058 7.04105C0.401234 7.0623 0.275223 7.13243 0.178747 7.2387C0.0621115 7.3681 -0.00215972 7.54219 5.54169e-05 7.72271C0.00227055 7.90323 0.0707908 8.07542 0.19056 8.20144L3.80745 12.0078L2.95295 17.3826C2.93291 17.5076 2.94572 17.6362 2.98995 17.7538C3.03417 17.8713 3.10802 17.9732 3.20313 18.0477C3.29825 18.1223 3.41081 18.1666 3.52806 18.1756C3.64532 18.1847 3.76257 18.1581 3.86652 18.0988L8.33792 15.5612L12.8093 18.0988C12.9314 18.1689 13.0732 18.1923 13.209 18.1668C13.5516 18.1031 13.782 17.7524 13.7229 17.3826L12.8684 12.0078L16.4853 8.20144C16.5837 8.0973 16.6487 7.96129 16.6684 7.81252C16.7216 7.4406 16.4813 7.0963 16.1368 7.04105Z" fill="#FDBF00"/>
</svg>
