<svg width="25" height="26" viewBox="0 0 25 26" fill="none" xmlns="http://www.w3.org/2000/svg">
<g clip-path="url(#clip0_283_26057)">
<path d="M12.5 23.7917C9.76732 23.7917 7.1466 22.7061 5.21434 20.7739C3.28207 18.8416 2.19653 16.2209 2.19653 13.4882C2.19653 10.7556 3.28207 8.13489 5.21434 6.20262C7.1466 4.27035 9.76732 3.18481 12.5 3.18481C15.2326 3.18481 17.8533 4.27035 19.7856 6.20262C21.7179 8.13489 22.8034 10.7556 22.8034 13.4882C22.8034 16.2209 21.7179 18.8416 19.7856 20.7739C17.8533 22.7061 15.2326 23.7917 12.5 23.7917ZM12.5 25.2636C15.623 25.2636 18.6181 24.023 20.8264 21.8147C23.0347 19.6064 24.2753 16.6113 24.2753 13.4882C24.2753 10.3652 23.0347 7.37012 20.8264 5.16181C18.6181 2.95351 15.623 1.71289 12.5 1.71289C9.37695 1.71289 6.38184 2.95351 4.17353 5.16181C1.96522 7.37012 0.724609 10.3652 0.724609 13.4882C0.724609 16.6113 1.96522 19.6064 4.17353 21.8147C6.38184 24.023 9.37695 25.2636 12.5 25.2636Z" fill="#1262AF"/>
<path d="M9.87124 8.48872C10.0101 8.41722 10.166 8.38541 10.3218 8.39679C10.4775 8.40817 10.6271 8.46231 10.7541 8.55323L16.6965 12.7978C16.8065 12.8763 16.8962 12.98 16.9581 13.1002C17.02 13.2204 17.0523 13.3536 17.0523 13.4888C17.0523 13.624 17.02 13.7572 16.9581 13.8774C16.8962 13.9976 16.8065 14.1013 16.6965 14.1798L10.7541 18.4244C10.6272 18.5152 10.4776 18.5693 10.3219 18.5807C10.1663 18.5921 10.0105 18.5603 9.87164 18.4889C9.73284 18.4175 9.61641 18.3092 9.53517 18.1759C9.45392 18.0426 9.41101 17.8895 9.41113 17.7333V9.24425C9.41097 9.08819 9.45383 8.9351 9.535 8.80181C9.61617 8.66853 9.73251 8.56019 9.87124 8.48872Z" fill="#1262AF"/>
</g>
<defs>
<clipPath id="clip0_283_26057">
<rect width="25" height="25" fill="white" transform="translate(0 0.988281)"/>
</clipPath>
</defs>
</svg>
